<?xml version="1.0" standalone="no"?>
<!DOCTYPE svg PUBLIC "-//W3C//DTD SVG 20010904//EN"
 "http://www.w3.org/TR/2001/REC-SVG-20010904/DTD/svg10.dtd">
<svg version="1.0" xmlns="http://www.w3.org/2000/svg"
 width="512.000000pt" height="512.000000pt" viewBox="0 0 512.000000 512.000000"
 preserveAspectRatio="xMidYMid meet">

<g transform="translate(0.000000,512.000000) scale(0.100000,-0.100000)"
fill="#000000" stroke="none">
<path d="M565 3817 c-120 -57 -170 -195 -112 -308 24 -47 1913 -2140 1969
-2182 84 -62 192 -62 275 0 57 41 1946 2135 1970 2182 56 109 10 245 -101 304
-60 31 -166 31 -222 -2 -28 -15 -320 -334 -909 -992 -477 -533 -871 -969 -875
-969 -4 0 -398 436 -875 969 -580 648 -881 976 -908 991 -60 34 -149 37 -212
7z"/>
</g>
</svg>
