<?xml version="1.0" standalone="no"?>
<!DOCTYPE svg PUBLIC "-//W3C//DTD SVG 20010904//EN"
 "http://www.w3.org/TR/2001/REC-SVG-20010904/DTD/svg10.dtd">
<svg version="1.0" xmlns="http://www.w3.org/2000/svg"
 width="512.000000pt" height="512.000000pt" viewBox="0 0 512.000000 512.000000"
 preserveAspectRatio="xMidYMid meet">

<g transform="translate(0.000000,512.000000) scale(0.100000,-0.100000)"
fill="#000000" stroke="none">
<path d="M3295 4301 c-27 -13 -297 -276 -857 -837 -897 -900 -856 -853 -829
-946 11 -38 115 -145 839 -870 725 -724 832 -828 870 -839 116 -34 227 77 193
194 -11 37 -108 137 -769 800 l-757 757 757 758 c800 801 788 788 774 865 -10
53 -43 97 -89 117 -53 24 -81 25 -132 1z"/>
</g>
</svg>
