<?xml version="1.0" encoding="UTF-8"?>
<svg version="1.1" xmlns="http://www.w3.org/2000/svg" width="512" height="512">
<path d="M0 0 C4.96286442 2.91497493 8.81850844 6.53506748 12.85821533 10.60424805 C13.52346623 11.26637897 14.18871713 11.92850988 14.87412715 12.61070538 C17.09436001 14.82298282 19.30740147 17.04231385 21.52050781 19.26171875 C23.11377244 20.85227248 24.70746205 22.44240061 26.30154419 24.03213501 C30.62405799 28.34553578 34.94022713 32.66523339 39.25501347 36.98636246 C43.77010405 41.50651685 48.29007258 46.02178922 52.80926514 50.5378418 C60.88116674 58.60587265 68.94801322 66.67893214 77.012889 74.75398433 C84.3254358 82.07547228 91.643219 89.39169212 98.96484375 96.70410156 C107.47128937 105.19984559 115.97436557 113.6989351 124.47250628 122.20298862 C128.96966611 126.70326934 133.46817311 131.20218103 137.97019196 135.69760132 C142.2001578 139.92179992 146.42522031 144.15084178 150.64651108 148.38370895 C152.19843515 149.93828259 153.75207307 151.49114741 155.30752182 153.04219437 C157.42623779 155.15546551 159.53872897 157.27476754 161.64971924 159.39575195 C162.27013446 160.01170573 162.89054968 160.62765951 163.52976537 161.26227856 C164.37665335 162.11698978 164.37665335 162.11698978 165.24065018 162.9889679 C165.72875585 163.47739827 166.21686152 163.96582865 166.71975827 164.46905994 C169.7439212 168.08541775 170.31578622 171.22079685 170.375 175.875 C170.40335938 176.88304687 170.43171875 177.89109375 170.4609375 178.9296875 C169.45366615 185.63913907 164.0212423 190.26622808 159.39575195 194.85821533 C158.40255558 195.85609168 158.40255558 195.85609168 157.38929462 196.87412715 C155.17701718 199.09436001 152.95768615 201.30740147 150.73828125 203.52050781 C149.14772752 205.11377244 147.55759939 206.70746205 145.96786499 208.30154419 C141.65446422 212.62405799 137.33476661 216.94022713 133.01363754 221.25501347 C128.49348315 225.77010405 123.97821078 230.29007258 119.4621582 234.80926514 C111.39412735 242.88116674 103.32106786 250.94801322 95.24601567 259.012889 C87.92452772 266.3254358 80.60830788 273.643219 73.29589844 280.96484375 C64.80015441 289.47128937 56.3010649 297.97436557 47.79701138 306.47250628 C43.29673066 310.96966611 38.79781897 315.46817311 34.30239868 319.97019196 C30.07820008 324.2001578 25.84915822 328.42522031 21.61629105 332.64651108 C20.06171741 334.19843515 18.50885259 335.75207307 16.95780563 337.30752182 C14.84453449 339.42623779 12.72523246 341.53872897 10.60424805 343.64971924 C9.98829427 344.27013446 9.37234049 344.89054968 8.73772144 345.52976537 C8.16791396 346.09435735 7.59810648 346.65894934 7.0110321 347.24065018 C6.52260173 347.72875585 6.03417135 348.21686152 5.53094006 348.71975827 C1.00266609 352.50650698 -3.38341237 352.42349806 -9.0859375 352.3125 C-14.38740101 351.74397844 -16.83972495 349.22134216 -20.375 345.5 C-22.72325726 340.44221514 -22.97097307 335.48314207 -22 330 C-19.19066437 325.25601646 -15.82306062 321.54216128 -11.93829346 317.69778442 C-11.33459356 317.09237568 -10.73089366 316.48696693 -10.10889983 315.86321247 C-8.09456876 313.84559983 -6.07319674 311.83519636 -4.05175781 309.82470703 C-2.60248068 308.3759943 -1.15364431 306.92684051 0.29478455 305.47727966 C4.22177503 301.54971579 8.15489767 297.62834527 12.08915234 293.70805979 C16.20203075 289.60769105 20.30923923 285.50165094 24.41705322 281.39620972 C32.19380532 273.62567168 39.97564124 265.86024562 47.75931764 258.09664428 C56.62171353 249.25660966 65.47842533 240.4108896 74.33466482 231.56468797 C92.55012664 213.37012647 110.7727131 195.18271459 129 177 C127.36374273 172.83156625 124.31591155 170.04909514 121.19226074 166.96520996 C120.59168083 166.36433233 119.99110091 165.76345469 119.37232161 165.14436865 C117.35643944 163.12987667 115.33349826 161.12262548 113.31054688 159.11523438 C111.86479609 157.67332141 110.41949962 156.23095279 108.97462463 154.78816223 C105.8612198 151.68108308 102.74473355 148.57713951 99.62586975 145.47554016 C94.69658008 140.57326044 89.7748966 135.66339265 84.85437012 130.75231934 C74.40880223 120.32896665 63.95482819 109.91406315 53.5 99.5 C42.21403284 88.25803862 30.92949258 77.01466806 19.65468073 65.76151705 C14.76072254 60.87753886 9.8619245 55.99848293 4.95940399 51.12310028 C1.91335852 48.09194918 -1.12855964 45.0566822 -4.16935921 42.02026939 C-5.58258102 40.61079905 -6.99753432 39.2030624 -8.41431999 37.79717445 C-10.34492752 35.88095353 -12.26931201 33.95869201 -14.19226074 32.03479004 C-14.75704022 31.47720048 -15.3218197 30.91961093 -15.9037137 30.34512472 C-20.57292298 25.65098527 -22.2908887 22.73614842 -22.375 16.125 C-22.27363418 10.91733093 -21.69948398 7.89419367 -18 4 C-12.87322962 -0.87043186 -6.74482111 -1.1943954 0 0 Z " fill="#000000" transform="translate(182,80)"/>
</svg>
